<?xml version="1.0" encoding="UTF-8"?>
<svg width="106px" height="60px" viewBox="0 0 106 60" version="1.1" xmlns="http://www.w3.org/2000/svg" xmlns:xlink="http://www.w3.org/1999/xlink">
    <g stroke="none" stroke-width="1" fill="none" fill-rule="evenodd">
        <rect width="100%" height="100%" fill="#000" />
        <path d="M0,0 L106,0 L106,60 L0,60 L0,0 Z M26.8644481,29.7721963 C25.8874852,29.7721963 25.3110037,29.7616037 24.9810037,29.7510111 C24.7557074,29.7440852 24.5784852,29.5595296 24.5784852,29.3342333 L24.5784852,24.0273444 C24.5784852,23.8020481 24.7557074,23.6174926 24.9810037,23.6101593 C25.3110037,23.5999741 25.8874852,23.5889741 26.8644481,23.5889741 C29.2514481,23.5889741 30.5857074,24.5683815 30.5857074,26.6803815 C30.5857074,28.7931963 29.2514481,29.7721963 26.8644481,29.7721963 Z M28.0153741,20.3720852 C24.9854852,20.4336037 20.672263,20.5912704 20.672263,20.5912704 C20.4188556,20.5994185 20.2184111,20.8063815 20.2184111,21.0585667 L20.2184111,39.5650481 C20.2184111,39.8522704 20.452263,40.0844926 20.7411148,40.0844926 L24.0541519,40.0844926 C24.3425963,40.0844926 24.5760407,39.8522704 24.5760407,39.5650481 L24.5784852,33.3622704 C24.5784852,33.1243444 24.7748556,32.9344926 25.0144111,32.9450852 C25.4788556,32.9670852 26.3608926,32.9890852 28.0153741,32.9890852 C31.9794481,32.9890852 34.3566704,30.3111963 34.3566704,26.6803815 C34.3566704,23.0499741 31.9786333,20.2914185 28.0153741,20.3720852 Z M44.7209519,37.0494296 C41.8483222,37.0494296 41.4474333,34.3006519 41.4474333,30.2339111 C41.4474333,26.0995407 41.8483222,23.4175778 44.7209519,23.4175778 C47.5943963,23.4175778 47.9952852,26.2205407 47.9952852,30.2339111 C47.9952852,34.284763 47.5943963,37.0494296 44.7209519,37.0494296 Z M44.7209519,20.3718 C42.208063,20.3718 37.0547667,21.0134667 37.0547667,30.2339111 C37.0547667,39.4539481 42.208063,40.0948 44.7209519,40.0948 C47.2346556,40.0948 52.3879519,39.4539481 52.3879519,30.2339111 C52.3879519,21.0134667 47.2346556,20.3718 44.7209519,20.3718 Z M77.9427444,37.0494296 C75.0697074,37.0494296 74.6684111,34.3006519 74.6684111,30.2339111 C74.6684111,26.0995407 75.0697074,23.4175778 77.9427444,23.4175778 C80.8161889,23.4175778 81.2170778,26.2205407 81.2170778,30.2339111 C81.2170778,34.284763 80.8161889,37.0494296 77.9427444,37.0494296 Z M77.9427444,20.3718 C75.4290407,20.3718 70.2765593,21.0134667 70.2765593,30.2339111 C70.2765593,39.4539481 75.4290407,40.0948 77.9427444,40.0948 C80.4564481,40.0948 85.6097444,39.4539481 85.6097444,30.2339111 C85.6097444,21.0134667 80.4564481,20.3718 77.9427444,20.3718 Z M55.1179889,30.2361111 C55.1179889,35.2472222 56.816063,40.0978148 63.1875074,40.0978148 C65.5476185,40.0978148 67.4473593,39.285037 68.1635815,38.9322222 C68.3387667,38.845037 68.4178037,38.6397037 68.3469148,38.4571852 L67.5378037,36.3867407 C67.4673222,36.2062593 67.2729889,36.1084815 67.0872111,36.161037 C66.5506556,36.3117778 65.4233593,36.5831111 64.2549148,36.5831111 C60.6905074,36.5831111 59.4894704,33.8217037 59.4894704,30.2361111 C59.4894704,26.6505185 60.6905074,23.9233333 64.2549148,23.9233333 C65.422137,23.9233333 66.5490259,24.1942593 67.0855815,24.345 C67.2721741,24.3975556 67.4673222,24.2993704 67.5365815,24.1172593 L68.3485444,22.0146296 C68.4190259,21.8317037 68.3395815,21.6271852 68.1643963,21.5412222 C67.4498037,21.1875926 65.5492481,20.3744074 63.1875074,20.3744074 C56.816063,20.3744074 55.1179889,25.225 55.1179889,30.2361111 Z" fill="#FFD400"></path>
    </g>
</svg>